<?xml version="1.0" standalone="no"?>
<!DOCTYPE svg PUBLIC "-//W3C//DTD SVG 20010904//EN"
 "http://www.w3.org/TR/2001/REC-SVG-20010904/DTD/svg10.dtd">
<svg version="1.0" xmlns="http://www.w3.org/2000/svg"
 width="512.000000pt" height="512.000000pt" viewBox="0 0 512.000000 512.000000"
 preserveAspectRatio="xMidYMid meet">
<metadata>
Created by potrace 1.14, written by Peter Selinger 2001-2017
</metadata>
<g transform="translate(0.000000,512.000000) scale(0.100000,-0.100000)"
fill="#000000" stroke="none">
<path d="M3840 5096 c-125 -36 -208 -85 -359 -210 -103 -87 -1031 -1011 -1031
-1028 0 -6 -2 -9 -6 -6 -6 7 -2229 -2213 -2244 -2241 -38 -72 48 -155 122
-117 12 7 52 23 88 36 198 72 520 226 738 352 l102 60 68 -22 c37 -12 90 -28
119 -35 49 -14 68 -18 130 -30 16 -3 44 -10 63 -15 34 -8 49 -11 150 -25 68
-9 109 -14 175 -21 33 -3 71 -8 85 -10 14 -2 102 -7 195 -10 94 -4 171 -7 171
-8 1 0 -41 -55 -93 -121 -136 -172 -147 -191 -147 -250 1 -67 22 -105 97 -166
34 -28 73 -61 87 -73 28 -23 126 -104 150 -123 8 -7 47 -38 85 -70 l70 -58
-24 -140 c-13 -77 -28 -143 -33 -146 -6 -4 -34 -10 -62 -13 -92 -12 -120 -17
-171 -26 -27 -5 -68 -12 -90 -15 -22 -3 -78 -12 -125 -20 -47 -7 -101 -16
-120 -19 -19 -3 -44 -7 -55 -10 -11 -2 -41 -6 -66 -10 -61 -9 -241 -40 -404
-71 -16 -3 -46 -8 -65 -11 -19 -3 -71 -12 -115 -20 -44 -8 -93 -17 -110 -19
-16 -3 -102 -18 -190 -35 -88 -17 -194 -37 -235 -45 -352 -66 -678 -133 -699
-145 -26 -14 -41 -42 -41 -77 1 -62 57 -91 142 -74 29 6 62 13 73 15 11 3 54
11 95 20 41 8 86 17 100 20 14 3 84 16 155 30 374 72 563 108 585 112 14 2 41
7 60 10 19 3 46 8 60 10 14 3 48 9 75 14 28 5 64 12 80 15 17 3 41 7 55 9 20
4 198 35 285 50 11 2 67 11 125 20 58 9 112 18 120 21 8 2 38 6 65 10 28 3 57
8 65 10 8 2 31 6 50 9 48 7 289 45 320 50 27 5 164 25 220 32 19 3 44 6 55 9
11 2 47 7 80 11 33 3 62 8 66 9 3 2 39 6 80 10 71 5 73 5 47 -10 -70 -40 -62
-134 13 -156 33 -10 42 -9 89 17 68 37 95 76 95 136 0 27 2 48 5 48 3 0 32 4
65 10 33 5 85 11 115 15 30 3 75 8 100 11 l45 6 -25 -18 c-50 -36 -65 -81 -40
-122 27 -44 67 -54 121 -30 78 34 119 87 119 153 0 19 3 35 8 36 4 0 16 2 27
4 11 2 49 7 85 10 36 4 76 8 89 10 23 4 59 -14 246 -125 437 -260 705 -410
734 -410 66 0 107 87 64 137 -15 16 -143 94 -313 191 -19 10 -93 54 -164 96
-70 42 -130 76 -131 76 -7 0 -105 63 -103 65 2 2 48 6 103 10 138 11 153 11
300 19 72 4 144 9 160 12 39 6 85 56 80 86 -13 68 -51 91 -140 84 -33 -3 -112
-8 -175 -11 -63 -3 -137 -8 -165 -11 -27 -3 -77 -7 -110 -9 -95 -7 -359 -32
-430 -40 -16 -2 -57 -6 -90 -9 -33 -3 -85 -9 -115 -13 -30 -4 -64 -6 -76 -6
-16 1 -248 183 -459 361 -11 10 -67 55 -125 102 -58 47 -116 94 -130 106 -14
12 -35 31 -47 41 l-22 18 92 115 c51 64 120 149 155 190 68 81 80 109 64 145
-11 23 -8 25 61 51 171 65 297 146 435 282 244 238 409 541 467 856 24 131 24
135 29 270 13 338 57 453 291 776 56 78 105 171 105 201 0 6 6 17 14 23 8 6
70 54 138 106 67 52 128 99 134 105 6 5 27 21 47 35 33 22 48 48 52 85 2 14
-23 62 -35 70 -7 5 -167 41 -263 59 -66 13 -184 38 -199 42 -9 3 -30 27 -48
53 -43 69 -137 152 -218 194 -128 67 -260 82 -392 43z m-928 -3423 c-155 -194
-161 -204 -168 -256 -8 -55 8 -106 44 -142 20 -20 336 -282 349 -290 5 -2 -30
-201 -37 -208 -6 -7 -667 528 -738 597 l-22 22 57 74 c31 41 90 116 130 165
41 50 76 100 80 113 3 12 10 22 17 23 6 0 27 2 46 4 19 2 67 6 105 9 83 8 114
12 175 25 25 5 53 9 62 10 12 1 -23 -50 -100 -146z m459 -880 l70 -58 -43 -6
c-139 -21 -129 -21 -124 9 2 15 7 46 11 70 4 23 9 42 11 42 2 0 36 -26 75 -57z
m-491 -70 c33 -27 59 -51 59 -54 1 -7 -131 -23 -139 -18 -6 5 -5 33 3 74 3 17
6 33 6 38 2 13 13 7 71 -40z"/>
</g>
</svg>
